Format : AVI
Format/Info : Audio Video Interleave
File size : 851 MiB
Duration : 1h 23mn
Overall bit rate : 1 428 Kbps
Writing library : VirtualDub build 32839/release

Video
ID : 0
Format : MPEG-4 Visual
Format profile : Advanced Simple@L5
Format settings, BVOP : Yes
Format settings, QPel : No
Format settings, GMC : No warppoints
Format settings, Matrix : Custom
Codec ID : XVID
Codec ID/Hint : XviD
Duration : 1h 23mn
Bit rate : 1 291 Kbps
Width : 624 pixels
Height : 352 pixels
Display aspect ratio : 16:9
Frame rate : 25.000 fps
Color space : YUV
Chroma subsampling : 4:2:0
Bit depth : 8 bits
Scan type : Progressive
Bits/(Pixel*Frame) : 0.235
Stream size : 769 MiB (90%)
Writing library : XviD 1.2.1 (UTC 2008-12-04)

Audio
ID : 1
Format : MPEG Audio
Format version : Version 1
Format profile : Layer 3
Mode : Joint stereo
Mode extension : MS Stereo
Codec ID : 55
Codec ID/Hint : MP3
Duration : 1h 23mn
Bit rate mode : Constant
Bit rate : 128 Kbps
Channel(s) : 2 channels
Sampling rate : 48.0 KHz
Stream size : 76.2 MiB (9%)
Alignment : Split accross interleaves
Interleave, duration : 40 ms (1.00 video frame)
Interleave, preload duration : 500 ms



 
http://www.imdb.com/title/tt1365483/




Users: 6.3/10 (44 votes) 1 review | Critics: 2 reviews

Several residents of a small Southern city whose lives are changed by the arrival of a stranger with a controversial plan to save their decaying hometown... See full summary »
Director:
John Doyle
Writer:
Horton Foote (screenplay)
Stars:
Colin Firth, Orlando Bloom and Amber Tamblyn
Own the rights? Add a poster » http://img256.imageshack.us/img256/5808/mains10